<svg width="396" height="397" viewBox="0 0 396 397" fill="none" xmlns="http://www.w3.org/2000/svg">
<rect x="0.5" y="1.41626" width="395" height="395" rx="29.5" stroke="#28D2F8"/>
<path d="M317.443 77.6454C318.681 76.8762 320.25 76.8762 321.483 77.6454L367.176 106.203C368.291 106.904 368.97 108.126 368.966 109.443C368.962 110.76 368.276 111.979 367.157 112.672L349.497 123.566L367.194 134.775C368.299 135.472 368.97 136.691 368.966 138.001C368.962 139.311 368.292 140.526 367.18 141.223L349.76 152.108L367.218 163.352C368.314 164.061 368.973 165.279 368.966 166.581C368.958 167.883 368.28 169.091 367.176 169.784L323.273 197.222V288.013H343.073C345.179 288.013 346.881 289.715 346.881 291.82V305.147C346.881 315.226 338.679 323.424 328.604 323.424H48.7383C38.6595 323.424 30.4621 315.222 30.4619 305.147V291.82C30.4619 289.715 32.1677 288.013 34.2695 288.013H55.2119V138.751C55.212 125.523 65.9723 114.763 79.2002 114.763H275.159L271.771 112.672C270.651 111.983 269.966 110.761 269.962 109.443C269.958 108.126 270.635 106.904 271.751 106.203L317.443 77.6454ZM38.0771 295.632V305.151C38.0773 311.03 42.8594 315.812 48.7383 315.812H328.604C334.482 315.812 339.265 311.03 339.266 305.151V295.636H220.02C218.336 302.455 212.008 306.674 202.95 306.674H175.154C166.1 306.674 159.767 302.451 158.084 295.632H38.0771ZM79.2002 122.382C70.3245 122.382 62.8271 129.879 62.8271 138.755V288.016H161.446C163.548 288.017 165.254 289.718 165.254 291.824C165.254 298.114 171.457 299.055 175.154 299.055H202.946C206.647 299.055 212.85 298.114 212.85 291.824C212.85 289.719 214.552 288.017 216.657 288.016H315.665V197.222L271.763 169.784C270.655 169.091 269.977 167.876 269.973 166.566C269.969 165.256 270.639 164.037 271.743 163.337L289.441 152.128L271.778 141.237C270.663 140.552 269.976 139.333 269.969 138.019C269.961 136.706 270.632 135.484 271.74 134.779L289.438 123.569L287.515 122.382H79.2002ZM116.896 237.755C118.998 237.755 120.704 239.457 120.704 241.562C120.704 243.668 118.998 245.37 116.896 245.37H94.0498C91.9481 245.37 90.2422 243.668 90.2422 241.562C90.2422 239.457 91.9481 237.755 94.0498 237.755H116.896ZM166.396 237.755C168.498 237.755 170.204 239.457 170.204 241.562C170.204 243.668 168.498 245.37 166.396 245.37H132.127C130.025 245.37 128.319 243.668 128.319 241.562C128.319 239.457 130.025 237.755 132.127 237.755H166.396ZM134.031 214.909C136.133 214.909 137.839 216.611 137.839 218.717C137.839 220.822 136.133 222.524 134.031 222.524H94.0498C91.9482 222.524 90.2424 220.822 90.2422 218.717C90.2422 216.611 91.9481 214.909 94.0498 214.909H134.031ZM174.012 214.909C176.114 214.909 177.819 216.611 177.819 218.717C177.819 220.822 176.113 222.524 174.012 222.524H151.165C149.064 222.524 147.358 220.822 147.357 218.717C147.357 216.611 149.063 214.909 151.165 214.909H174.012ZM219.704 214.909C221.81 214.909 223.512 216.611 223.512 218.717C223.511 220.822 221.81 222.524 219.704 222.524H189.242C187.141 222.524 185.435 220.822 185.435 218.717C185.435 216.611 187.14 214.909 189.242 214.909H219.704ZM91.3584 169.57C92.8472 168.082 95.2535 168.081 96.7422 169.57L108.165 180.993C109.654 182.482 109.654 184.889 108.165 186.378L96.7422 197.801C95.9997 198.543 95.0246 198.916 94.0498 198.916C93.0752 198.916 92.1008 198.543 91.3584 197.801C89.8734 196.312 89.8734 193.906 91.3584 192.417L100.089 183.685L91.3584 174.954C89.8696 173.465 89.8696 171.059 91.3584 169.57ZM143.55 191.301C145.652 191.301 147.357 193.007 147.357 195.108C147.357 197.21 145.652 198.916 143.55 198.916H120.704C118.602 198.916 116.896 197.21 116.896 195.108C116.897 193.007 118.602 191.301 120.704 191.301H143.55ZM321.476 169.784C320.863 170.168 320.166 170.358 319.466 170.358C318.762 170.358 318.049 170.164 317.429 169.768L296.619 156.59L280.924 166.532L319.466 190.619L358.053 166.502L342.62 156.567L321.476 169.784ZM280.988 109.413L298.618 120.284C298.63 120.292 298.641 120.299 298.656 120.307L319.641 133.596L340.138 120.394L340.248 120.322L357.938 109.413L319.466 85.3671L280.988 109.413Z" fill="#28D2F8"/>
</svg>
