<svg width="41" height="42" viewBox="0 0 41 42" fill="none" xmlns="http://www.w3.org/2000/svg">
<path d="M14.8061 15.2775C13.2957 15.2775 11.8472 14.6775 10.7793 13.6096C9.71131 12.5416 9.11133 11.0931 9.11133 9.58279C9.11133 8.07245 9.71131 6.62398 10.7793 5.55601C11.8472 4.48804 13.2957 3.88806 14.8061 3.88806H20.4999V15.2775M14.8061 15.2775H20.4999M14.8061 15.2775C13.2959 15.2775 11.8477 15.8774 10.7799 16.9452C9.71207 18.013 9.11218 19.4613 9.11218 20.9714C9.11218 22.4815 9.71207 23.9298 10.7799 24.9976C11.8477 26.0654 13.2959 26.6653 14.8061 26.6653H20.4999V15.2775" stroke="#28D2F8" stroke-width="2.5625"/>
<path d="M31.8895 20.9715C31.8895 22.4818 31.2895 23.9303 30.2216 24.9982C29.1536 26.0662 27.7051 26.6662 26.1948 26.6662C24.6845 26.6662 23.236 26.0662 22.168 24.9982C21.1 23.9303 20.5001 22.4818 20.5001 20.9715C20.5001 19.4611 21.1 18.0126 22.168 16.9447C23.236 15.8767 24.6845 15.2767 26.1948 15.2767C27.7051 15.2767 29.1536 15.8767 30.2216 16.9447C31.2895 18.0126 31.8895 19.4611 31.8895 20.9715ZM14.8062 26.667H20.5001V32.3609C20.4997 33.487 20.1655 34.5877 19.5396 35.5238C18.9138 36.4599 18.0244 37.1895 16.984 37.6202C15.9435 38.0508 14.7987 38.1634 13.6943 37.9435C12.5899 37.7236 11.5755 37.1812 10.7794 36.3848C9.98327 35.5884 9.44115 34.5739 9.22159 33.4694C9.00203 32.3649 9.11488 31.2202 9.54589 30.1799C9.9769 29.1395 10.7067 28.2504 11.643 27.6248C12.5793 26.9992 13.6801 26.667 14.8062 26.667Z" stroke="#28D2F8" stroke-width="2.5625"/>
<path d="M20.5 3.88806H26.1939C27.7042 3.88806 29.1527 4.48804 30.2207 5.55601C31.2886 6.62398 31.8886 8.07245 31.8886 9.58279C31.8886 11.0931 31.2886 12.5416 30.2207 13.6096C29.1527 14.6775 27.7042 15.2775 26.1939 15.2775H20.5V3.88806Z" stroke="#28D2F8" stroke-width="2.5625"/>
</svg>
