<svg width="703" height="711" viewBox="0 0 703 711" fill="none" xmlns="http://www.w3.org/2000/svg">
<path d="M261.388 151.767L272.194 179.381C258.302 185.915 248.907 195.719 244.008 208.793C239.245 221.851 237.138 236.427 237.686 252.52L239.158 295.761C239.634 309.755 237.133 322.831 231.654 334.989C226.313 347.131 217.478 357.291 205.149 365.47C192.821 373.648 176.488 378.921 156.152 381.287L155.166 352.32C169.224 350.684 179.181 345.31 185.037 336.199C190.894 327.088 193.579 315.395 193.093 301.122L191.621 257.88C191.121 243.187 192.838 229.219 196.772 215.976C200.838 202.577 208.029 190.431 218.347 179.536C228.659 168.501 243.006 159.245 261.388 151.767ZM284.241 533.288L275.4 563.399C256.651 560.101 241.788 554.174 230.808 545.617C219.833 537.2 211.875 526.817 206.932 514.467C202.131 502.24 199.481 488.78 198.98 474.087L197.523 431.265C197.194 421.609 195.548 413.512 192.585 406.973C189.617 400.293 185.134 395.406 179.137 392.311C173.271 389.059 165.697 387.974 156.416 389.054L155.423 359.876C175.76 357.51 192.323 359.024 205.114 364.42C217.899 369.676 227.353 377.708 233.476 388.516C239.731 399.168 243.102 411.631 243.588 425.905L245.045 468.726C245.412 479.501 246.842 489.31 249.336 498.152C251.97 507.118 256.063 514.65 261.615 520.747C267.303 526.829 274.845 531.009 284.241 533.288Z" fill="url(#paint0_linear_416_1022)"/>
<path d="M301.9 315.452C304.598 315.439 307.191 316.499 309.109 318.397L309.109 318.396C311.025 320.297 312.109 322.881 312.121 325.579C312.133 328.278 311.074 330.872 309.176 332.79L309.17 332.795L309.164 332.801L287.406 355.507L286.73 356.212L287.44 356.884L306.692 375.071L306.692 375.072C308.608 376.972 309.691 379.556 309.704 382.254C309.716 384.953 308.657 387.547 306.758 389.465L306.755 389.469C305.804 390.441 304.666 391.209 303.409 391.728C302.153 392.246 300.804 392.504 299.445 392.486L299.432 393.445L299.424 392.486C298.087 392.499 296.761 392.244 295.525 391.738C294.288 391.231 293.165 390.482 292.222 389.536L265.166 362.728L264.814 362.371C264.014 361.517 263.369 360.53 262.908 359.452C262.382 358.22 262.107 356.894 262.101 355.554C262.095 354.214 262.357 352.887 262.872 351.65C263.323 350.568 263.959 349.574 264.751 348.714L265.1 348.353L265.109 348.344L294.716 318.462C296.617 316.547 299.201 315.464 301.9 315.452Z" fill="url(#paint1_linear_416_1022)" stroke="#E5E4E0" stroke-width="1.93987"/>
<path d="M402.14 316.327C404.838 316.314 407.432 317.373 409.35 319.271L409.35 319.272L439.232 348.879L439.24 348.888C440.204 349.818 440.972 350.933 441.499 352.165C442.025 353.397 442.298 354.722 442.305 356.061C442.311 357.401 442.049 358.729 441.535 359.965C441.02 361.202 440.262 362.323 439.306 363.263L439.298 363.273L412.565 390.251C411.48 391.04 410.248 391.606 408.941 391.91C407.613 392.22 406.236 392.255 404.894 392.015L404.723 392.97L404.715 391.999C403.378 392.012 402.052 391.757 400.816 391.251C399.579 390.744 398.456 389.995 397.513 389.049L397.51 389.045L397.159 388.681C395.462 386.822 394.51 384.393 394.498 381.863C394.486 379.164 395.545 376.57 397.443 374.652L397.442 374.651L416.381 356.285L417.091 355.596L395.024 333.731L395.023 333.731C393.107 331.83 392.025 329.247 392.012 326.548C392 323.85 393.059 321.256 394.957 319.338C396.857 317.422 399.441 316.339 402.14 316.327Z" fill="url(#paint2_linear_416_1022)" stroke="#E5E4E0" stroke-width="1.93987"/>
<path d="M367.16 301.76C368.55 301.745 369.927 302.014 371.209 302.551L371.243 302.566L371.278 302.577C372.601 303.017 373.817 303.728 374.849 304.664C375.882 305.601 376.709 306.742 377.276 308.016C377.843 309.289 378.139 310.666 378.144 312.059C378.15 313.453 377.865 314.834 377.307 316.111L377.297 316.136L377.287 316.162L346.162 400.136C345.357 401.849 344.103 403.312 342.532 404.37C340.954 405.432 339.117 406.045 337.217 406.143L337.267 407.112L337.063 406.163C335.939 406.406 334.779 406.413 333.652 406.189C332.351 405.747 331.154 405.045 330.135 404.122C329.103 403.186 328.276 402.044 327.709 400.771C327.142 399.498 326.846 398.121 326.841 396.727C326.835 395.333 327.12 393.953 327.678 392.675L327.691 392.645L327.703 392.614L357.655 308.595L357.658 308.588C358.116 307.276 358.837 306.072 359.778 305.049C360.719 304.026 361.86 303.207 363.129 302.641C364.398 302.076 365.771 301.776 367.16 301.76Z" fill="url(#paint3_linear_416_1022)" stroke="#E5E4E0" stroke-width="1.93987"/>
<path d="M132.064 339.518C152.423 349.224 156.983 352.327 156.719 352.666" stroke="#E5E4E0" stroke-width="2.4054" stroke-linecap="square"/>
<path d="M260.548 152.758C126.996 183.973 166.911 277.548 160.953 328.834" stroke="#E5E4E0" stroke-width="2.4054" stroke-linecap="round"/>
<path d="M160.953 328.843C144.128 334.592 136.067 337.38 132.947 338.474C132.027 338.796 131.413 339.642 131.388 340.626C131.13 351.007 130.151 407.759 139.818 403.21C150.454 398.204 167.641 400.336 173.035 418.546C178.43 436.756 164.258 562.546 274.658 561.938" stroke="#E5E4E0" stroke-width="2.4054" stroke-linecap="round"/>
<path d="M157.916 387.299C142.523 400.569 139.039 403.37 139.221 403.111" stroke="#E5E4E0" stroke-width="2.4054" stroke-linecap="round"/>
<path d="M447.044 554.282L436.107 526.739C449.978 520.141 459.335 510.298 464.179 497.208C468.886 484.135 470.929 469.559 470.309 453.479L468.642 410.274C468.103 396.292 470.547 383.212 475.974 371.035C481.265 358.875 490.06 348.678 502.36 340.445C514.659 332.211 530.979 326.862 551.318 324.397L552.434 353.341C538.374 355.045 528.435 360.464 522.616 369.597C516.797 378.731 514.162 390.429 514.713 404.691L516.379 447.896C516.946 462.578 515.29 476.545 511.413 489.799C507.405 503.208 500.263 515.382 489.988 526.32C479.718 537.398 465.403 546.719 447.044 554.282ZM422.465 173.126L431.177 142.991C449.952 146.195 464.852 152.045 475.876 160.542C486.896 168.9 494.906 179.237 499.907 191.555C504.766 203.75 507.479 217.188 508.045 231.869L509.696 274.655C510.068 284.303 511.751 292.387 514.746 298.908C517.746 305.568 522.253 310.43 528.269 313.494C534.153 316.714 541.736 317.762 551.018 316.637L552.143 345.79C531.804 348.255 515.223 346.823 502.4 341.493C489.583 336.304 480.086 328.324 473.911 317.553C467.604 306.939 464.176 294.5 463.626 280.238L461.975 237.452C461.56 226.686 460.085 216.891 457.55 208.067C454.873 199.12 450.744 191.613 445.161 185.547C439.442 179.497 431.877 175.357 422.465 173.126Z" fill="url(#paint4_linear_416_1022)"/>
<path d="M447.044 554.282L436.107 526.739C449.978 520.141 459.335 510.298 464.179 497.208C468.886 484.135 470.929 469.559 470.309 453.479L468.642 410.274C468.103 396.292 470.547 383.212 475.974 371.035C481.265 358.875 490.06 348.678 502.36 340.445C514.659 332.211 530.979 326.862 551.318 324.397L552.434 353.341C538.374 355.045 528.435 360.464 522.616 369.597C516.797 378.731 514.162 390.429 514.713 404.691L516.379 447.896C516.946 462.578 515.29 476.545 511.413 489.799C507.405 503.208 500.263 515.382 489.988 526.32C479.718 537.398 465.403 546.719 447.044 554.282ZM422.465 173.126L431.177 142.991C449.952 146.195 464.852 152.045 475.876 160.542C486.896 168.9 494.906 179.237 499.907 191.555C504.766 203.75 507.479 217.188 508.045 231.869L509.696 274.655C510.068 284.303 511.751 292.387 514.746 298.908C517.746 305.568 522.253 310.43 528.269 313.494C534.153 316.714 541.736 317.762 551.018 316.637L552.143 345.79C531.804 348.255 515.223 346.823 502.4 341.493C489.583 336.304 480.086 328.324 473.911 317.553C467.604 306.939 464.176 294.5 463.626 280.238L461.975 237.452C461.56 226.686 460.085 216.891 457.55 208.067C454.873 199.12 450.744 191.613 445.161 185.547C439.442 179.497 431.877 175.357 422.465 173.126Z" fill="url(#paint5_linear_416_1022)" fill-opacity="0.2"/>
<path d="M396.861 172C475.784 213.087 416.049 274.556 463.742 318.667" stroke="#E5E4E0" stroke-width="2.4054" stroke-linecap="round"/>
<path d="M463.744 318.677C463.744 318.677 476.344 328.846 473.22 343.281C470.224 357.131 443.66 362.365 444.033 412.722C444.065 417.12 444.74 421.503 445.416 425.849C451.858 467.291 439.259 519.747 424.109 536.503M431.151 560.273L446.702 553.607" stroke="#E5E4E0" stroke-width="2.4054" stroke-linecap="round"/>
<path d="M430.461 143.736L399.422 152.029C398.469 152.284 397.769 153.105 397.661 154.097L395.977 169.56C395.823 170.974 396.903 172.22 398.309 172.25L423.04 172.789" stroke="#E5E4E0" stroke-width="2.4054" stroke-linecap="round"/>
<path d="M501.597 341.289L473.244 343.276" stroke="#E5E4E0" stroke-width="2.4054" stroke-linecap="round"/>
<path d="M436.527 527.297C436.53 526.906 438.604 525.561 424.125 536.505C423.954 536.634 423.41 534.797 431.167 560.275" stroke="#E5E4E0" stroke-width="2.4054" stroke-linecap="round"/>
<defs>
<linearGradient id="paint0_linear_416_1022" x1="266.755" y1="362.866" x2="151.998" y2="481.725" gradientUnits="userSpaceOnUse">
<stop stop-color="#BC32D4"/>
<stop offset="1" stop-color="#28D2F8"/>
</linearGradient>
<linearGradient id="paint1_linear_416_1022" x1="286.991" y1="314.55" x2="286.643" y2="364.218" gradientUnits="userSpaceOnUse">
<stop stop-color="#8326F5"/>
<stop offset="1" stop-color="#28D2F8"/>
</linearGradient>
<linearGradient id="paint2_linear_416_1022" x1="417.039" y1="315.288" x2="416.704" y2="364.227" gradientUnits="userSpaceOnUse">
<stop stop-color="#8326F5"/>
<stop offset="1" stop-color="#28D2F8"/>
</linearGradient>
<linearGradient id="paint3_linear_416_1022" x1="352.246" y1="300.859" x2="351.536" y2="367.769" gradientUnits="userSpaceOnUse">
<stop stop-color="#8326F5"/>
<stop offset="1" stop-color="#28D2F8"/>
</linearGradient>
<linearGradient id="paint4_linear_416_1022" x1="350.148" y1="477.519" x2="552.926" y2="221.558" gradientUnits="userSpaceOnUse">
<stop offset="0.405" stop-color="#28D2F8"/>
</linearGradient>
<linearGradient id="paint5_linear_416_1022" x1="447.672" y1="497.916" x2="475.415" y2="203.78" gradientUnits="userSpaceOnUse">
<stop offset="0.07" stop-color="#BC32D4"/>
<stop offset="0.22" stop-color="#1D0A46"/>
</linearGradient>
</defs>
</svg>
