<svg width="93" height="93" viewBox="0 0 93 93" fill="none" xmlns="http://www.w3.org/2000/svg">
<path d="M34.6827 19.6631L36.0993 23.2407C34.2783 24.0872 33.0468 25.3573 32.4046 27.0512C31.7803 28.743 31.5041 30.6313 31.5759 32.7163L31.7689 38.3186C31.8313 40.1316 31.5035 41.8257 30.7854 43.4009C30.0852 44.974 28.9271 46.2903 27.3111 47.3499C25.695 48.4094 23.5541 49.0925 20.8883 49.3991L20.7591 45.6461C22.6019 45.4342 23.9071 44.738 24.6747 43.5576C25.4423 42.3772 25.7943 40.8623 25.7306 39.013L25.5376 33.4108C25.472 31.5071 25.6971 29.6974 26.2128 27.9817C26.7457 26.2458 27.6884 24.6722 29.0408 23.2607C30.3926 21.8311 32.2733 20.6318 34.6827 19.6631ZM37.6788 69.0921L36.5199 72.9932C34.0623 72.566 32.1139 71.798 30.6747 70.6894C29.2361 69.5989 28.1928 68.2537 27.5449 66.6536C26.9156 65.0696 26.5681 63.3257 26.5025 61.422L26.3114 55.8742C26.2683 54.6232 26.0526 53.5741 25.6641 52.7269C25.2751 51.8615 24.6875 51.2283 23.9013 50.8273C23.1324 50.406 22.1396 50.2654 20.923 50.4053L20.7928 46.6252C23.4586 46.3186 25.6298 46.5148 27.3064 47.2139C28.9823 47.8948 30.2217 48.9354 31.0243 50.3357C31.8442 51.7158 32.286 53.3304 32.3497 55.1797L32.5408 60.7276C32.5889 62.1236 32.7764 63.3944 33.1033 64.5399C33.4486 65.7016 33.9852 66.6774 34.7129 67.4674C35.4586 68.2553 36.4472 68.7969 37.6788 69.0921Z" fill="url(#paint0_linear_416_1142)"/>
<path d="M39.9929 40.8717C40.3463 40.8701 40.6862 41.0073 40.9374 41.253C41.1881 41.4989 41.33 41.8334 41.3316 42.1825C41.3332 42.5316 41.1946 42.8675 40.9461 43.1157L40.9441 43.1167L38.0922 46.0587L38.0023 46.1514L38.097 46.2394L40.62 48.5947L40.6201 48.5957C40.8709 48.8417 41.0136 49.1761 41.0152 49.5253C41.0166 49.8306 40.9105 50.1257 40.7176 50.3609L40.6287 50.4584C40.5044 50.5841 40.3555 50.6837 40.1911 50.7508C40.0266 50.8179 39.8491 50.8517 39.6711 50.8493L39.6696 50.9494L39.6691 50.8493C39.4942 50.8509 39.3199 50.8172 39.158 50.7516C38.9962 50.686 38.849 50.5895 38.7256 50.4671L38.7256 50.4661L35.1799 46.9946L35.1789 46.9936C35.0528 46.8733 34.9522 46.7289 34.8833 46.5696C34.8145 46.4104 34.7787 46.2391 34.7778 46.066C34.777 45.8927 34.8112 45.7205 34.8786 45.5605C34.946 45.4005 35.0452 45.2554 35.1702 45.1338L35.1712 45.1328L39.0529 41.2615C39.3017 41.0137 39.6396 40.8734 39.9929 40.8717Z" fill="url(#paint1_linear_416_1142)" stroke="#E5E4E0" stroke-width="0.255885"/>
<path d="M53.1332 40.9849C53.4865 40.9834 53.8257 41.1206 54.0768 41.3661L57.9934 45.2021L57.9954 45.2031C58.1215 45.3234 58.2221 45.4678 58.291 45.6271C58.3599 45.7865 58.3956 45.9583 58.3964 46.1317C58.3972 46.3048 58.363 46.4763 58.2957 46.6362C58.2283 46.7961 58.129 46.9414 58.004 47.0629L58.0021 47.0639L54.4967 50.5596C54.355 50.6612 54.195 50.7351 54.0244 50.7744C53.8506 50.8144 53.6699 50.8186 53.4942 50.7875L53.4712 50.9129L53.4706 50.7857C53.2956 50.7873 53.1214 50.7545 52.9595 50.6889C52.7977 50.6234 52.6505 50.5268 52.527 50.4044L52.527 50.4034L52.4382 50.3067C52.2431 50.0732 52.1342 49.7793 52.1328 49.4738C52.1312 49.1255 52.269 48.7907 52.5164 48.5426L55.0007 46.1616L55.0945 46.0709L55.0018 45.98L52.201 43.2374C51.9502 42.9915 51.8085 42.6569 51.8068 42.3078C51.8053 42.0022 51.9112 41.7066 52.1044 41.4712L52.1923 41.3747C52.4412 41.1268 52.7798 40.9865 53.1332 40.9849Z" fill="url(#paint2_linear_416_1142)" stroke="#E5E4E0" stroke-width="0.255885"/>
<path d="M48.5481 39.0978C48.6845 39.0963 48.8201 39.1152 48.95 39.1542L49.0779 39.2003L49.0868 39.2031C49.2599 39.2601 49.4193 39.3528 49.5545 39.4739C49.6897 39.5951 49.7985 39.7428 49.8727 39.9076C49.9469 40.0722 49.9854 40.2504 49.9862 40.4305C49.9869 40.6108 49.9495 40.7893 49.8766 40.9545L49.8737 40.9613L45.792 51.8437C45.6865 52.064 45.5229 52.2525 45.3182 52.3888C45.1118 52.5261 44.8716 52.6055 44.623 52.6182L44.6295 52.7454L44.6024 52.6212C44.4556 52.6525 44.3038 52.6531 44.1566 52.6242C43.986 52.5671 43.8292 52.4759 43.6957 52.3563C43.5606 52.2351 43.4518 52.0874 43.3775 51.9226C43.3034 51.758 43.2648 51.5799 43.2641 51.3997C43.2634 51.2194 43.3007 51.041 43.3736 50.8757L43.3765 50.867L47.3031 39.9824L47.3031 39.9814C47.363 39.8117 47.4578 39.6559 47.5808 39.5237C47.704 39.3913 47.8541 39.285 48.0203 39.2119C48.1864 39.1388 48.3663 39.0998 48.5481 39.0978Z" fill="url(#paint3_linear_416_1142)" stroke="#E5E4E0" stroke-width="0.255885"/>
<path d="M17.7312 43.9876C20.3998 45.2451 20.9976 45.6471 20.963 45.6909" stroke="#E5E4E0" stroke-width="0.317292" stroke-linecap="square"/>
<path d="M34.5728 19.7914C17.0664 23.8354 22.2987 35.9588 21.5177 42.6033" stroke="#E5E4E0" stroke-width="0.317292" stroke-linecap="round"/>
<path d="M21.5176 42.6045C19.3178 43.3474 18.261 43.7086 17.8496 43.851C17.7273 43.8934 17.6453 44.0053 17.6421 44.1348C17.608 45.4896 17.4813 52.8281 18.7473 52.2392C20.1415 51.5907 22.3944 51.867 23.1015 54.2262C23.8086 56.5854 21.951 72.8826 36.4227 72.8038" stroke="#E5E4E0" stroke-width="0.317292" stroke-linecap="round"/>
<path d="M21.1192 50.1778C19.1014 51.8971 18.6447 52.2599 18.6686 52.2264" stroke="#E5E4E0" stroke-width="0.317292" stroke-linecap="round"/>
<path d="M59.0192 71.8115L57.5856 68.2432C59.4038 67.3884 60.6304 66.1131 61.2653 64.4173C61.8823 62.7236 62.1502 60.8351 62.0688 58.7518L61.8503 53.1542C61.7796 51.3427 62.0999 49.6482 62.8113 48.0706C63.5049 46.4951 64.6578 45.174 66.27 44.1073C67.8823 43.0407 70.0214 42.3476 72.6876 42.0283L72.8339 45.7782C70.9909 45.9989 69.688 46.701 68.9253 47.8843C68.1625 49.0677 67.8172 50.5832 67.8893 52.431L68.1079 58.0286C68.1821 59.9307 67.9651 61.7402 67.4569 63.4573C66.9315 65.1946 65.9953 66.7718 64.6484 68.189C63.3023 69.6242 61.4259 70.8317 59.0192 71.8115ZM55.797 22.4298L56.9389 18.5256C59.4 18.9407 61.3531 19.6986 62.7983 20.7995C64.2428 21.8823 65.2928 23.2217 65.9484 24.8175C66.5853 26.3975 66.9409 28.1385 67.0152 30.0406L67.2316 35.5838C67.2804 36.8338 67.5011 37.8811 67.8936 38.7259C68.2868 39.5888 68.8777 40.2187 69.6662 40.6157C70.4375 41.0329 71.4315 41.1687 72.6483 41.0229L72.7958 44.8C70.1296 45.1193 67.9562 44.9337 66.2753 44.2432C64.5952 43.5708 63.3503 42.5369 62.5408 41.1415C61.7141 39.7663 61.2647 38.1548 61.1926 36.3071L60.9762 30.7638C60.9217 29.369 60.7283 28.0999 60.3961 26.9567C60.0452 25.7976 59.5039 24.825 58.7721 24.039C58.0224 23.2552 57.0307 22.7188 55.797 22.4298Z" fill="url(#paint4_linear_416_1142)"/>
<path d="M59.0192 71.8115L57.5856 68.2432C59.4038 67.3884 60.6304 66.1131 61.2653 64.4173C61.8823 62.7236 62.1502 60.8351 62.0688 58.7518L61.8503 53.1542C61.7796 51.3427 62.0999 49.6482 62.8113 48.0706C63.5049 46.4951 64.6578 45.174 66.27 44.1073C67.8823 43.0407 70.0214 42.3476 72.6876 42.0283L72.8339 45.7782C70.9909 45.9989 69.688 46.701 68.9253 47.8843C68.1625 49.0677 67.8172 50.5832 67.8893 52.431L68.1079 58.0286C68.1821 59.9307 67.9651 61.7402 67.4569 63.4573C66.9315 65.1946 65.9953 66.7718 64.6484 68.189C63.3023 69.6242 61.4259 70.8317 59.0192 71.8115ZM55.797 22.4298L56.9389 18.5256C59.4 18.9407 61.3531 19.6986 62.7983 20.7995C64.2428 21.8823 65.2928 23.2217 65.9484 24.8175C66.5853 26.3975 66.9409 28.1385 67.0152 30.0406L67.2316 35.5838C67.2804 36.8338 67.5011 37.8811 67.8936 38.7259C68.2868 39.5888 68.8777 40.2187 69.6662 40.6157C70.4375 41.0329 71.4315 41.1687 72.6483 41.0229L72.7958 44.8C70.1296 45.1193 67.9562 44.9337 66.2753 44.2432C64.5952 43.5708 63.3503 42.5369 62.5408 41.1415C61.7141 39.7663 61.2647 38.1548 61.1926 36.3071L60.9762 30.7638C60.9217 29.369 60.7283 28.0999 60.3961 26.9567C60.0452 25.7976 59.5039 24.825 58.7721 24.039C58.0224 23.2552 57.0307 22.7188 55.797 22.4298Z" fill="url(#paint5_linear_416_1142)" fill-opacity="0.2"/>
<path d="M52.4408 22.2843C62.7864 27.6075 54.9563 35.5712 61.208 41.2862" stroke="#E5E4E0" stroke-width="0.317292" stroke-linecap="round"/>
<path d="M61.208 41.2878C61.208 41.2878 62.8596 42.6053 62.4502 44.4754C62.0576 46.2688 58.5792 46.9472 58.6242 53.4614C58.6282 54.0382 58.7179 54.613 58.8072 55.1829C59.648 60.5505 57.9974 67.3394 56.0127 69.5089M56.9358 72.5884L58.9744 71.7248" stroke="#E5E4E0" stroke-width="0.317292" stroke-linecap="round"/>
<path d="M56.8448 18.6229L52.7792 19.6964C52.6524 19.7299 52.5593 19.838 52.5449 19.9685L52.3249 21.965C52.3045 22.1502 52.4472 22.3131 52.6334 22.3171L55.872 22.3868" stroke="#E5E4E0" stroke-width="0.317292" stroke-linecap="round"/>
<path d="M66.1696 44.217L62.453 44.4744" stroke="#E5E4E0" stroke-width="0.317292" stroke-linecap="round"/>
<path d="M57.6406 68.3158C57.6409 68.2652 57.9128 68.0909 56.0149 69.5088C55.9925 69.5255 55.9211 69.2875 56.9381 72.5883" stroke="#E5E4E0" stroke-width="0.317292" stroke-linecap="round"/>
<defs>
<linearGradient id="paint0_linear_416_1142" x1="35.3866" y1="47.0126" x2="20.5261" y2="62.5854" gradientUnits="userSpaceOnUse">
<stop stop-color="#BC32D4"/>
<stop offset="1" stop-color="#28D2F8"/>
</linearGradient>
<linearGradient id="paint1_linear_416_1142" x1="38.039" y1="40.7533" x2="37.9942" y2="47.1882" gradientUnits="userSpaceOnUse">
<stop stop-color="#8326F5"/>
<stop offset="1" stop-color="#28D2F8"/>
</linearGradient>
<linearGradient id="paint2_linear_416_1142" x1="55.0858" y1="40.8488" x2="55.0428" y2="47.1892" gradientUnits="userSpaceOnUse">
<stop stop-color="#8326F5"/>
<stop offset="1" stop-color="#28D2F8"/>
</linearGradient>
<linearGradient id="paint3_linear_416_1142" x1="46.5927" y1="38.9794" x2="46.5017" y2="47.6481" gradientUnits="userSpaceOnUse">
<stop stop-color="#8326F5"/>
<stop offset="1" stop-color="#28D2F8"/>
</linearGradient>
<linearGradient id="paint4_linear_416_1142" x1="46.3178" y1="61.8662" x2="72.5171" y2="28.4063" gradientUnits="userSpaceOnUse">
<stop offset="0.405" stop-color="#28D2F8"/>
</linearGradient>
<linearGradient id="paint5_linear_416_1142" x1="59.1016" y1="64.509" x2="62.655" y2="26.3936" gradientUnits="userSpaceOnUse">
<stop offset="0.07" stop-color="#BC32D4"/>
<stop offset="0.22" stop-color="#1D0A46"/>
</linearGradient>
</defs>
</svg>
