<svg width="53" height="54" viewBox="0 0 53 54" fill="none" xmlns="http://www.w3.org/2000/svg">
<path d="M26.4998 19.7943C24.5964 19.7943 22.7708 20.5505 21.4249 21.8964C20.0789 23.2424 19.3228 25.0679 19.3228 26.9714C19.3228 28.8749 20.0789 30.7004 21.4249 32.0464C22.7708 33.3923 24.5964 34.1485 26.4998 34.1485C28.4033 34.1485 30.2288 33.3923 31.5748 32.0464C32.9208 30.7004 33.6769 28.8749 33.6769 26.9714C33.6769 25.0679 32.9208 23.2424 31.5748 21.8964C30.2288 20.5505 28.4033 19.7943 26.4998 19.7943Z" fill="#28D2F8"/>
<path fill-rule="evenodd" clip-rule="evenodd" d="M14.9506 7.27754C22.6269 6.42718 30.3735 6.42718 38.0498 7.27754C42.2434 7.74571 45.6244 11.0472 46.1168 15.2563C47.0265 23.0399 47.0265 30.903 46.1168 38.6867C45.6244 42.8958 42.2434 46.1972 38.052 46.6676C30.375 47.5181 22.6276 47.5181 14.9506 46.6676C10.757 46.1972 7.37603 42.8958 6.88358 38.6889C5.9737 30.9045 5.9737 23.0406 6.88358 15.2563C7.37603 11.0472 10.757 7.74571 14.9506 7.27754ZM37.5419 13.7215C36.9562 13.7215 36.3945 13.9541 35.9803 14.3683C35.5662 14.7824 35.3335 15.3441 35.3335 15.9298C35.3335 16.5155 35.5662 17.0772 35.9803 17.4913C36.3945 17.9055 36.9562 18.1381 37.5419 18.1381C38.1276 18.1381 38.6893 17.9055 39.1034 17.4913C39.5175 17.0772 39.7502 16.5155 39.7502 15.9298C39.7502 15.3441 39.5175 14.7824 39.1034 14.3683C38.6893 13.9541 38.1276 13.7215 37.5419 13.7215ZM16.0106 26.9715C16.0106 24.1894 17.1158 21.5214 19.0829 19.5542C21.0501 17.587 23.7182 16.4819 26.5002 16.4819C29.2822 16.4819 31.9503 17.587 33.9175 19.5542C35.8846 21.5214 36.9898 24.1894 36.9898 26.9715C36.9898 29.7535 35.8846 32.4215 33.9175 34.3887C31.9503 36.3559 29.2822 37.461 26.5002 37.461C23.7182 37.461 21.0501 36.3559 19.0829 34.3887C17.1158 32.4215 16.0106 29.7535 16.0106 26.9715Z" fill="#28D2F8"/>
</svg>
