<svg width="396" height="397" viewBox="0 0 396 397" fill="none" xmlns="http://www.w3.org/2000/svg">
<rect x="0.5" y="1.41626" width="395" height="395" rx="29.5" stroke="#28D2F8"/>
<path d="M209.804 46.5133C217.419 40.0403 228.842 42.325 233.411 51.0826C235.696 55.2711 239.504 58.3172 244.073 59.0787C253.973 60.9827 259.304 71.6443 255.115 80.402C253.211 84.5904 253.212 89.5407 255.496 93.7291C260.065 102.487 255.115 113.529 245.596 115.813C241.027 116.956 237.219 120.383 235.315 124.571C232.585 130.53 226.774 133.835 220.846 133.766V227.759H308.042C318.54 227.759 327.081 236.3 327.081 246.797V341.609C327.081 352.107 318.54 360.648 308.042 360.648H95.1924C80.4947 360.648 68.5381 348.688 68.5381 333.994V105.533C68.5381 90.8351 80.4947 78.8785 95.1924 78.8785H172.184C172.545 78.5016 172.839 78.0825 173.25 77.736C176.677 74.6898 178.962 70.1205 178.581 65.5514C178.201 55.6517 187.338 48.0365 196.857 49.9401C201.427 50.7016 206.377 49.5594 209.804 46.5133ZM213.23 168.968C207.131 173.595 196.82 180.125 182.605 184.87C182.537 185.483 182.476 186.103 182.309 186.697C181.075 195.234 177.016 203.04 170.852 208.926C170.437 209.722 169.766 210.332 168.905 210.671C161.88 216.523 153.195 219.763 144.312 219.763C134.636 219.763 125.597 216.286 118.861 209.973C111.741 203.988 107.19 194.678 106.398 184.744C92.3787 180.011 82.1971 173.557 76.1543 168.972V333.994C76.1543 344.492 84.6946 353.033 95.1924 353.033H194.192C204.69 353.033 213.23 344.488 213.23 333.99V168.968ZM319.466 325.522C316.275 327.94 312.345 329.428 308.042 329.428H220.846V333.994C220.846 341.449 217.759 348.189 212.809 353.033H308.042C314.34 353.033 319.466 347.907 319.466 341.609V325.522ZM186.577 299.725C190.766 299.725 194.192 303.152 194.192 307.34V322.571C194.192 326.759 190.766 330.186 186.577 330.186H102.808C98.6192 330.186 95.1924 326.759 95.1924 322.571V307.34C95.1924 303.152 98.6192 299.725 102.808 299.725H186.577ZM220.846 321.813H308.042C314.34 321.813 319.466 316.688 319.466 310.39V246.801C319.466 240.504 314.34 235.379 308.042 235.379H220.846V321.813ZM286.692 255.148C288.181 253.659 290.588 253.659 292.077 255.148L305.022 268.094C306.511 269.583 306.511 271.989 305.022 273.478C303.534 274.967 301.127 274.967 299.639 273.478L289.385 263.224L279.131 273.478C278.419 274.194 277.451 274.594 276.438 274.594C275.426 274.594 274.462 274.194 273.746 273.478L263.576 263.308L254.084 273.395C252.633 274.93 250.23 274.998 248.699 273.558C247.169 272.115 247.097 269.705 248.536 268.174L260.721 255.228C261.429 254.478 262.408 254.048 263.439 254.033C264.513 254.033 265.465 254.421 266.188 255.148L276.438 265.402L286.692 255.148ZM167.538 263.551C169.64 263.551 171.345 265.254 171.346 267.359C171.346 269.465 169.64 271.168 167.538 271.168H121.846C119.744 271.167 118.038 269.465 118.038 267.359C118.038 265.254 119.744 263.552 121.846 263.551H167.538ZM190.385 240.71C192.487 240.71 194.192 242.412 194.192 244.517C194.192 246.623 192.487 248.325 190.385 248.325H99C96.8982 248.325 95.1924 246.623 95.1924 244.517C95.1924 242.412 96.8982 240.71 99 240.71H190.385ZM144.312 191.206C135.52 191.206 127.972 197.5 126 206.063C131.175 210.084 137.412 212.152 144.308 212.152C151.081 212.152 157.73 209.768 163.239 205.458C161.061 197.207 153.659 191.206 145.073 191.206H144.312ZM144.696 151.225C133.818 151.225 123.936 156.933 118.274 166.494C118.263 166.513 118.252 166.532 118.24 166.55C115.8 170.507 114.421 175.221 113.96 180.845C114.215 181.58 114.311 182.383 114.063 183.186C114.033 183.285 113.968 183.362 113.93 183.457C114.25 189.499 116.359 195.363 119.904 200.024C122.501 193.802 127.352 188.822 133.346 186.039C130.97 183.328 129.462 179.809 129.462 175.975C129.462 167.435 136.152 160.744 144.692 160.744C153.233 160.744 159.923 167.435 159.923 175.975C159.923 179.806 158.415 183.328 156.039 186.039C161.8 188.715 166.506 193.422 169.168 199.308C172.123 195.211 174.122 190.383 174.808 185.361C174.838 185.129 174.891 184.896 174.967 184.672C175.153 184.116 175.154 182.768 175.154 181.686C175.154 176.119 173.73 170.743 171.152 166.547C165.456 156.932 155.575 151.225 144.696 151.225ZM144.692 168.359C140.352 168.359 137.077 171.634 137.077 175.975C137.077 180.103 140.39 183.59 144.312 183.59H145.073C148.995 183.59 152.307 180.103 152.308 175.975C152.308 171.634 149.033 168.359 144.692 168.359ZM95.1924 86.4938C84.6946 86.4938 76.1543 95.035 76.1543 105.533H76.1504V159.099C79.3682 162.016 89.9075 170.724 106.756 176.82C107.575 171.379 109.201 166.707 111.733 162.584C118.682 150.879 131.305 143.609 144.692 143.609C158.088 143.609 170.722 150.89 177.667 162.61C180.184 166.696 181.821 171.654 182.457 176.881C199.408 170.785 210.001 162.024 213.23 159.099V131.566C212.724 131.265 212.191 131.033 211.708 130.664C207.9 127.998 202.95 126.855 198.381 127.998C189.623 131.044 180.104 123.81 180.104 113.91C180.104 109.341 177.819 104.771 174.012 102.106C168.955 98.2527 166.964 92.1215 168.095 86.4938H95.1924ZM232.364 74.3473C230.914 72.8282 228.503 72.7677 226.98 74.2184L205.631 94.5514L197.978 87.1793C196.462 85.721 194.051 85.7664 192.593 87.2819C191.134 88.7935 191.176 91.2044 192.699 92.6627L202.98 102.562C204.446 103.979 206.769 103.983 208.246 102.578L232.235 79.7321C233.755 78.2813 233.815 75.8704 232.364 74.3473Z" fill="#28D2F8"/>
</svg>
