<svg width="54" height="55" viewBox="0 0 54 55" fill="none" xmlns="http://www.w3.org/2000/svg">
<path d="M42.75 7.22144C43.9435 7.22144 45.0881 7.69554 45.932 8.53945C46.7759 9.38337 47.25 10.528 47.25 11.7214V43.2214C47.25 44.4149 46.7759 45.5595 45.932 46.4034C45.0881 47.2473 43.9435 47.7214 42.75 47.7214H11.25C10.0565 47.7214 8.91193 47.2473 8.06802 46.4034C7.22411 45.5595 6.75 44.4149 6.75 43.2214V11.7214C6.75 10.528 7.22411 9.38337 8.06802 8.53945C8.91193 7.69554 10.0565 7.22144 11.25 7.22144H42.75ZM41.625 42.0964V30.1714C41.625 28.2261 40.8522 26.3604 39.4766 24.9848C38.101 23.6092 36.2354 22.8364 34.29 22.8364C32.3775 22.8364 30.15 24.0064 29.07 25.7614V23.2639H22.7925V42.0964H29.07V31.0039C29.07 29.2714 30.465 27.8539 32.1975 27.8539C33.0329 27.8539 33.8341 28.1858 34.4249 28.7765C35.0156 29.3673 35.3475 30.1685 35.3475 31.0039V42.0964H41.625ZM15.48 19.7314C16.4825 19.7314 17.444 19.3332 18.1529 18.6243C18.8618 17.9154 19.26 16.954 19.26 15.9514C19.26 13.8589 17.5725 12.1489 15.48 12.1489C14.4715 12.1489 13.5043 12.5496 12.7912 13.2627C12.0781 13.9758 11.6775 14.943 11.6775 15.9514C11.6775 18.0439 13.3875 19.7314 15.48 19.7314ZM18.6075 42.0964V23.2639H12.375V42.0964H18.6075Z" fill="#28D2F8"/>
</svg>
