<svg width="396" height="397" viewBox="0 0 396 397" fill="none" xmlns="http://www.w3.org/2000/svg">
<rect x="0.5" y="1.41626" width="395" height="395" rx="29.5" stroke="#28D2F8"/>
<path d="M308.419 92.3011C321.647 92.3011 332.407 103.747 332.407 117.813V132.578C332.639 133.07 332.792 133.607 332.792 134.186C332.792 134.765 332.643 135.301 332.411 135.792V254.57C348.582 261.968 359.827 278.303 359.827 297.536C359.827 323.428 338.884 344.75 312.992 344.75C294.312 344.75 278.255 333.625 270.734 317.716H65.873C52.8698 317.716 41.8848 306.034 41.8848 292.204V117.813C41.8848 103.983 52.8698 92.3011 65.873 92.3011H308.419ZM312.996 283.447C311.972 283.443 310.993 283.854 310.277 284.585L290.097 305.147C288.623 306.647 288.646 309.057 290.146 310.531C291.647 312.004 294.057 311.982 295.53 310.482L312.992 292.692L330.073 310.105C331.547 311.605 333.958 311.627 335.458 310.154C336.962 308.68 336.984 306.27 335.515 304.77L315.715 284.589C314.999 283.858 314.017 283.447 312.996 283.447ZM49.5 137.994V292.204C49.5 301.906 56.9973 310.101 65.873 310.101H267.901C266.793 306.088 266.157 301.884 266.157 297.536C266.157 297.151 266.207 296.774 266.215 296.389H166.776C159.553 296.389 153.45 289.939 153.45 282.305V167.693C153.45 159.792 159.306 153.605 166.776 153.605H297.381C304.604 153.605 310.708 160.059 310.708 167.693V250.438C311.469 250.4 312.219 250.32 312.992 250.32C317.078 250.32 321.019 250.895 324.796 251.877V137.994H49.5ZM128.319 232.043C132.591 232.044 135.935 235.554 135.935 240.039V288.02C135.935 292.639 132.519 296.393 128.319 296.393H72.7266C68.4544 296.393 65.1113 292.882 65.1113 288.397V240.039C65.1113 235.706 68.5991 232.043 72.7266 232.043H128.319ZM72.7266 239.659C72.8903 239.662 72.7266 239.86 72.7266 240.039V288.397C72.7266 288.658 72.8058 288.807 72.8291 288.838L128.083 288.774C128.178 288.667 128.319 288.419 128.319 288.016V240.039C128.319 239.773 128.242 239.628 128.216 239.594L72.7266 239.659ZM166.776 161.22C163.574 161.22 161.066 164.064 161.065 167.693V282.309C161.066 286.01 164.081 288.777 166.776 288.778H267.003C270.487 270.242 284.777 255.408 303.092 251.406V167.693C303.092 163.878 300.084 161.22 297.381 161.22H166.776ZM128.319 153.605C132.591 153.605 135.935 157.116 135.935 161.601V209.578C135.935 213.914 132.447 217.577 128.319 217.578H72.7266C68.4544 217.577 65.1113 214.063 65.1113 209.578V161.601C65.1113 157.268 68.5991 153.605 72.7266 153.605H128.319ZM72.7266 161.22C72.8865 161.224 72.7266 161.418 72.7266 161.601V209.578C72.7266 209.843 72.8061 209.992 72.833 210.027L128.125 209.962C128.209 209.886 128.319 209.73 128.319 209.578V161.601C128.319 161.339 128.244 161.191 128.213 161.156L72.7266 161.22ZM65.873 99.9164C56.9973 99.9164 49.5 108.111 49.5 117.813V130.377H324.796V117.813C324.796 108.111 317.299 99.9164 308.423 99.9164H65.873ZM262.731 108.674C266.158 108.674 268.823 111.72 268.823 115.147C268.823 118.954 266.158 121.62 262.731 121.62C259.305 121.62 256.258 118.955 256.639 115.147C256.639 111.339 259.305 108.674 262.731 108.674ZM281.389 108.674C284.815 108.674 287.48 111.72 287.48 115.147C287.48 118.955 284.816 121.62 281.389 121.62C277.962 121.62 275.296 118.955 275.296 115.147C275.296 111.339 277.962 108.674 281.389 108.674ZM300.427 108.674C303.854 108.674 306.519 111.72 306.52 115.147C306.52 118.955 303.854 121.62 300.427 121.62C297 121.62 294.335 118.954 294.335 115.147C294.335 111.339 297 108.674 300.427 108.674Z" fill="#28D2F8"/>
</svg>
